<?xml version="1.0" encoding="UTF-8" standalone="no"?>
<!-- Created with Inkscape (http://www.inkscape.org/) -->

<svg
   xmlns:dc="http://purl.org/dc/elements/1.1/"
   xmlns:cc="http://creativecommons.org/ns#"
   xmlns:rdf="http://www.w3.org/1999/02/22-rdf-syntax-ns#"
   xmlns:svg="http://www.w3.org/2000/svg"
   xmlns="http://www.w3.org/2000/svg"
   xmlns:sodipodi="http://sodipodi.sourceforge.net/DTD/sodipodi-0.dtd"
   xmlns:inkscape="http://www.inkscape.org/namespaces/inkscape"
   width="22.553436mm"
   height="12.31265mm"
   viewBox="0 0 79.913751 43.627499"
   id="svg3884"
   version="1.1"
   inkscape:version="0.91 r13725">
  <defs
     id="defs3886">
    <clipPath
       clipPathUnits="userSpaceOnUse"
       id="clipPath462">
      <path
         d="m 0,2835.252 1080,0 L 1080,0 0,0 0,2835.252 Z"
         id="path464"
         inkscape:connector-curvature="0" />
    </clipPath>
  </defs>
  <sodipodi:namedview
     id="base"
     pagecolor="#ffffff"
     bordercolor="#666666"
     borderopacity="1.0"
     inkscape:pageopacity="0.0"
     inkscape:pageshadow="2"
     inkscape:zoom="3.959798"
     inkscape:cx="120.58409"
     inkscape:cy="37.631766"
     inkscape:document-units="px"
     inkscape:current-layer="layer1"
     showgrid="false"
     fit-margin-top="0"
     fit-margin-left="0"
     fit-margin-right="0"
     fit-margin-bottom="0"
     inkscape:window-width="1366"
     inkscape:window-height="744"
     inkscape:window-x="0"
     inkscape:window-y="24"
     inkscape:window-maximized="1" />
  <metadata
     id="metadata3889">
    <rdf:RDF>
      <cc:Work
         rdf:about="">
        <dc:format>image/svg+xml</dc:format>
        <dc:type
           rdf:resource="http://purl.org/dc/dcmitype/StillImage" />
        <dc:title></dc:title>
      </cc:Work>
    </rdf:RDF>
  </metadata>
  <g
     inkscape:label="Capa 1"
     inkscape:groupmode="layer"
     id="layer1"
     transform="translate(-478.27344,-498.65935)">
    <g
       id="g458"
       transform="matrix(1.25,0,0,-1.25,428.27344,3997.4481)">
      <g
         id="g460"
         clip-path="url(#clipPath462)">
        <path
           d="m 976.069,2799.031 63.931,0 0,-34.902 -63.931,0 0,34.902 z"
           style="fill:#094d88;fill-opacity:1;fill-rule:evenodd;stroke:none"
           id="path466"
           inkscape:connector-curvature="0" />
        <g
           id="g468"
           transform="translate(982.5164,2773.2151)">
          <path
             d="m 0,0 0.039,-1.155 -0.13,0 c -0.026,0.197 -0.066,0.341 -0.105,0.433 -0.078,0.145 -0.171,0.249 -0.288,0.315 -0.131,0.065 -0.288,0.092 -0.485,0.092 l -0.667,0 0,-3.767 c 0,-0.301 0.026,-0.484 0.092,-0.563 0.091,-0.105 0.236,-0.159 0.432,-0.159 l 0.169,0 0,-0.13 -2.055,0 0,0.13 0.17,0 c 0.198,0 0.354,0.067 0.433,0.197 0.052,0.08 0.078,0.25 0.078,0.525 l 0,3.767 -0.575,0 c -0.223,0 -0.38,-0.013 -0.472,-0.052 -0.13,-0.04 -0.236,-0.132 -0.314,-0.263 -0.092,-0.132 -0.144,-0.301 -0.157,-0.525 l -0.144,0 L -3.927,0 0,0 Z"
             style="fill:#ffdd00;fill-opacity:1;fill-rule:nonzero;stroke:none"
             id="path470"
             inkscape:connector-curvature="0" />
        </g>
        <g
           id="g472"
           transform="translate(987.6476,2768.281)">
          <path
             d="M 0,0 -1.295,0 -2.919,2.309 C -3.037,2.297 -3.128,2.297 -3.207,2.297 l -0.092,0 c -0.038,0 -0.078,0 -0.118,0.012 l 0,-1.445 c 0,-0.3 0.04,-0.497 0.106,-0.575 C -3.22,0.183 -3.09,0.13 -2.906,0.13 l 0.183,0 0,-0.13 -2.054,0 0,0.13 0.183,0 c 0.196,0 0.34,0.067 0.432,0.212 0.052,0.078 0.078,0.248 0.078,0.522 l 0,3.19 c 0,0.314 -0.039,0.513 -0.105,0.578 -0.09,0.105 -0.222,0.158 -0.405,0.158 l -0.183,0 0,0.144 1.74,0 c 0.511,0 0.89,-0.039 1.126,-0.119 0.249,-0.078 0.458,-0.224 0.629,-0.419 0.157,-0.211 0.248,-0.447 0.248,-0.735 0,-0.302 -0.105,-0.565 -0.288,-0.788 C -1.519,2.65 -1.819,2.494 -2.212,2.4 L -1.231,0.984 C -0.995,0.656 -0.799,0.446 -0.641,0.342 -0.484,0.236 -0.262,0.156 0,0.13 L 0,0 Z m -3.417,2.531 0,0 0.118,0 0.079,0 c 0.458,0 0.798,0.106 1.034,0.304 0.223,0.209 0.341,0.458 0.341,0.774 0,0.315 -0.092,0.562 -0.275,0.748 -0.197,0.197 -0.432,0.289 -0.746,0.289 -0.131,0 -0.315,-0.027 -0.551,-0.079 l 0,-2.036 z"
             style="fill:#ffdd00;fill-opacity:1;fill-rule:nonzero;stroke:none"
             id="path474"
             inkscape:connector-curvature="0" />
        </g>
        <g
           id="g476"
           transform="translate(990.9072,2769.9209)">
          <path
             d="M 0,0 -1.873,0 -2.2,-0.775 c -0.078,-0.183 -0.118,-0.326 -0.118,-0.419 0,-0.078 0.027,-0.144 0.105,-0.197 0.066,-0.065 0.223,-0.092 0.446,-0.118 l 0,-0.131 -1.505,0 0,0.131 c 0.196,0.039 0.326,0.092 0.379,0.145 0.131,0.118 0.262,0.354 0.407,0.708 l 1.713,4.055 0.131,0 1.649,-4.095 c 0.144,-0.328 0.263,-0.55 0.368,-0.642 0.117,-0.105 0.26,-0.157 0.458,-0.171 l 0,-0.131 -1.898,0 0,0.131 c 0.182,0.014 0.312,0.053 0.379,0.105 0.078,0.053 0.104,0.119 0.104,0.198 0,0.105 -0.039,0.275 -0.143,0.497 L 0,0 Z m -0.118,0.276 0,0 -0.799,1.995 -0.837,-1.995 1.636,0 z"
             style="fill:#ffdd00;fill-opacity:1;fill-rule:nonzero;stroke:none"
             id="path478"
             inkscape:connector-curvature="0" />
        </g>
        <g
           id="g480"
           transform="translate(992.7139,2773.2151)">
          <path
             d="m 0,0 1.295,0 2.932,-3.688 0,2.835 c 0,0.302 -0.04,0.486 -0.105,0.565 -0.078,0.103 -0.223,0.144 -0.418,0.144 l -0.172,0 0,0.144 1.69,0 0,-0.144 -0.17,0 c -0.21,0 -0.353,-0.053 -0.433,-0.184 C 4.568,-0.407 4.541,-0.577 4.541,-0.853 l 0,-4.161 -0.129,0 -3.169,3.977 0,-3.045 c 0,-0.301 0.039,-0.484 0.105,-0.563 0.091,-0.105 0.222,-0.159 0.418,-0.159 l 0.17,0 0,-0.13 -1.688,0 0,0.13 0.17,0 c 0.21,0 0.353,0.067 0.445,0.197 0.052,0.08 0.078,0.25 0.078,0.525 l 0,3.425 C 0.797,-0.486 0.693,-0.367 0.628,-0.315 0.549,-0.263 0.444,-0.223 0.301,-0.17 0.235,-0.144 0.129,-0.144 0,-0.144 L 0,0 Z"
             style="fill:#ffdd00;fill-opacity:1;fill-rule:nonzero;stroke:none"
             id="path482"
             inkscape:connector-curvature="0" />
        </g>
        <g
           id="g484"
           transform="translate(1001.3393,2773.3203)">
          <path
             d="m 0,0 0,-1.707 -0.131,0 c -0.039,0.329 -0.118,0.591 -0.235,0.787 -0.106,0.184 -0.263,0.342 -0.458,0.46 -0.21,0.104 -0.42,0.17 -0.63,0.17 -0.247,0 -0.445,-0.078 -0.613,-0.236 -0.158,-0.157 -0.237,-0.328 -0.237,-0.524 0,-0.144 0.053,-0.29 0.157,-0.407 0.144,-0.184 0.484,-0.42 1.034,-0.722 0.445,-0.248 0.759,-0.446 0.917,-0.578 0.17,-0.129 0.286,-0.275 0.379,-0.459 0.092,-0.183 0.131,-0.367 0.131,-0.565 0,-0.366 -0.131,-0.695 -0.42,-0.957 -0.273,-0.275 -0.64,-0.407 -1.086,-0.407 -0.143,0 -0.274,0.014 -0.392,0.026 -0.066,0.014 -0.224,0.066 -0.457,0.133 -0.224,0.078 -0.367,0.117 -0.433,0.117 -0.052,0 -0.104,-0.013 -0.144,-0.052 -0.026,-0.04 -0.052,-0.105 -0.065,-0.224 l -0.13,0 0,1.68 0.13,0 c 0.052,-0.355 0.143,-0.616 0.249,-0.786 0.09,-0.172 0.249,-0.33 0.471,-0.434 0.208,-0.118 0.445,-0.184 0.693,-0.184 0.301,0 0.524,0.079 0.707,0.249 0.17,0.157 0.248,0.342 0.248,0.564 0,0.118 -0.025,0.236 -0.091,0.368 -0.066,0.119 -0.171,0.236 -0.301,0.341 -0.092,0.079 -0.34,0.223 -0.759,0.461 -0.406,0.235 -0.694,0.419 -0.878,0.563 -0.17,0.144 -0.3,0.302 -0.392,0.46 -0.091,0.17 -0.131,0.366 -0.131,0.563 0,0.354 0.131,0.655 0.393,0.918 0.262,0.25 0.602,0.382 1.008,0.382 0.248,0 0.523,-0.066 0.811,-0.196 0.13,-0.054 0.223,-0.094 0.276,-0.094 0.064,0 0.117,0.027 0.157,0.066 0.038,0.04 0.065,0.105 0.091,0.224 L 0,0 Z"
             style="fill:#ffdd00;fill-opacity:1;fill-rule:nonzero;stroke:none"
             id="path486"
             inkscape:connector-curvature="0" />
        </g>
        <g
           id="g488"
           transform="translate(1003.5378,2770.5901)">
          <path
             d="M 0,0 0,-1.444 C 0,-1.745 0.039,-1.941 0.105,-2.02 0.197,-2.125 0.327,-2.178 0.512,-2.178 l 0.183,0 0,-0.131 -2.057,0 0,0.131 0.184,0 c 0.196,0 0.341,0.066 0.433,0.21 0.051,0.079 0.077,0.249 0.077,0.524 l 0,3.189 c 0,0.315 -0.038,0.513 -0.104,0.578 -0.092,0.104 -0.222,0.157 -0.406,0.157 l -0.184,0 0,0.145 1.755,0 C 0.811,2.625 1.152,2.572 1.401,2.48 1.65,2.387 1.859,2.245 2.029,2.021 2.186,1.811 2.278,1.548 2.278,1.26 2.278,0.853 2.147,0.525 1.899,0.276 1.636,0.026 1.27,-0.104 0.811,-0.104 0.695,-0.104 0.563,-0.092 0.432,-0.079 0.3,-0.065 0.158,-0.039 0,0 m 0,0.21 0,0 C 0.131,0.184 0.236,0.158 0.327,0.145 0.432,0.132 0.512,0.132 0.576,0.132 c 0.249,0 0.445,0.09 0.629,0.287 0.17,0.198 0.261,0.459 0.261,0.762 0,0.223 -0.04,0.421 -0.131,0.604 C 1.258,1.969 1.139,2.1 0.982,2.192 0.838,2.283 0.654,2.337 0.457,2.337 0.341,2.337 0.197,2.31 0,2.258 L 0,0.21 Z"
             style="fill:#ffdd00;fill-opacity:1;fill-rule:nonzero;stroke:none"
             id="path490"
             inkscape:connector-curvature="0" />
        </g>
        <g
           id="g492"
           transform="translate(1008.7477,2769.9209)">
          <path
             d="m 0,0 -1.872,0 -0.327,-0.775 c -0.078,-0.183 -0.118,-0.326 -0.118,-0.419 0,-0.078 0.026,-0.144 0.105,-0.197 0.066,-0.065 0.209,-0.092 0.444,-0.118 l 0,-0.131 -1.504,0 0,0.131 c 0.195,0.039 0.327,0.092 0.38,0.145 0.13,0.118 0.261,0.354 0.404,0.708 l 1.715,4.055 0.13,0 1.651,-4.095 c 0.143,-0.328 0.262,-0.55 0.365,-0.642 0.119,-0.105 0.263,-0.157 0.46,-0.171 l 0,-0.131 -1.898,0 0,0.131 c 0.182,0.014 0.313,0.053 0.38,0.105 0.077,0.053 0.104,0.119 0.104,0.198 0,0.105 -0.04,0.275 -0.144,0.497 L 0,0 Z m -0.118,0.276 0,0 -0.798,1.995 -0.839,-1.995 1.637,0 z"
             style="fill:#ffdd00;fill-opacity:1;fill-rule:nonzero;stroke:none"
             id="path494"
             inkscape:connector-curvature="0" />
        </g>
        <g
           id="g496"
           transform="translate(1015.5408,2768.281)">
          <path
             d="M 0,0 -1.284,0 -2.919,2.309 C -3.037,2.297 -3.127,2.297 -3.207,2.297 l -0.091,0 c -0.039,0 -0.079,0 -0.105,0.012 l 0,-1.445 c 0,-0.3 0.026,-0.497 0.092,-0.575 0.092,-0.106 0.222,-0.159 0.405,-0.159 l 0.183,0 0,-0.13 -2.055,0 0,0.13 0.184,0 c 0.196,0 0.34,0.067 0.432,0.212 0.051,0.078 0.078,0.248 0.078,0.522 l 0,3.19 c 0,0.314 -0.039,0.513 -0.105,0.578 C -4.28,4.737 -4.411,4.79 -4.594,4.79 l -0.184,0 0,0.144 1.755,0 c 0.497,0 0.876,-0.039 1.124,-0.119 0.237,-0.078 0.446,-0.224 0.615,-0.419 0.172,-0.211 0.25,-0.447 0.25,-0.735 0,-0.302 -0.091,-0.565 -0.288,-0.788 C -1.517,2.65 -1.806,2.494 -2.212,2.4 L -1.218,0.984 C -0.995,0.656 -0.799,0.446 -0.641,0.342 -0.472,0.236 -0.262,0.156 0,0.13 L 0,0 Z m -3.403,2.531 0,0 0.105,0 0.079,0 c 0.458,0 0.797,0.106 1.033,0.304 0.223,0.209 0.34,0.458 0.34,0.774 0,0.315 -0.091,0.562 -0.273,0.748 -0.183,0.197 -0.433,0.289 -0.748,0.289 -0.13,0 -0.313,-0.027 -0.536,-0.079 l 0,-2.036 z"
             style="fill:#ffdd00;fill-opacity:1;fill-rule:nonzero;stroke:none"
             id="path498"
             inkscape:connector-curvature="0" />
        </g>
        <g
           id="g500"
           transform="translate(1016.9807,2772.9387)">
          <path
             d="m 0,0 0,-1.941 1.047,0 c 0.276,0 0.458,0.052 0.55,0.13 0.118,0.105 0.183,0.301 0.196,0.579 l 0.131,0 0,-1.706 -0.131,0 C 1.767,-2.703 1.729,-2.545 1.702,-2.48 1.65,-2.4 1.583,-2.323 1.492,-2.282 1.387,-2.231 1.244,-2.205 1.047,-2.205 l -1.047,0 0,-1.627 c 0,-0.222 0.013,-0.354 0.039,-0.407 0.014,-0.038 0.052,-0.078 0.093,-0.105 0.051,-0.025 0.143,-0.038 0.274,-0.038 l 0.798,0 c 0.276,0 0.472,0.013 0.589,0.051 0.118,0.041 0.236,0.118 0.352,0.237 0.146,0.144 0.289,0.366 0.447,0.669 l 0.144,0 -0.405,-1.233 -3.692,0 0,0.131 0.17,0 c 0.118,0 0.224,0.026 0.328,0.092 0.077,0.04 0.116,0.091 0.156,0.171 0.027,0.078 0.039,0.236 0.039,0.471 l 0,3.203 c 0,0.315 -0.039,0.512 -0.09,0.578 -0.092,0.103 -0.237,0.144 -0.433,0.144 l -0.17,0 0,0.144 3.692,0 0.051,-1.089 -0.144,0 C 2.186,-0.552 2.134,-0.367 2.081,-0.275 2.015,-0.183 1.924,-0.105 1.807,-0.052 1.715,-0.012 1.558,0 1.309,0 L 0,0 Z"
             style="fill:#ffdd00;fill-opacity:1;fill-rule:nonzero;stroke:none"
             id="path502"
             inkscape:connector-curvature="0" />
        </g>
        <g
           id="g504"
           transform="translate(1019.7941,2773.2151)">
          <path
             d="m 0,0 1.309,0 2.92,-3.688 0,2.835 c 0,0.302 -0.026,0.486 -0.091,0.565 -0.093,0.103 -0.236,0.144 -0.42,0.144 l -0.17,0 0,0.144 1.689,0 0,-0.144 -0.171,0 C 4.857,-0.144 4.713,-0.197 4.621,-0.328 4.57,-0.407 4.543,-0.577 4.543,-0.853 l 0,-4.161 -0.117,0 -3.169,3.977 0,-3.045 c 0,-0.301 0.027,-0.484 0.092,-0.563 0.092,-0.105 0.236,-0.159 0.418,-0.159 l 0.183,0 0,-0.13 -1.687,0 0,0.13 0.17,0 c 0.196,0 0.353,0.067 0.431,0.197 0.053,0.08 0.078,0.25 0.078,0.525 l 0,3.425 C 0.813,-0.486 0.708,-0.367 0.629,-0.315 0.564,-0.263 0.459,-0.223 0.315,-0.17 0.25,-0.144 0.145,-0.144 0,-0.144 L 0,0 Z"
             style="fill:#ffdd00;fill-opacity:1;fill-rule:nonzero;stroke:none"
             id="path506"
             inkscape:connector-curvature="0" />
        </g>
        <g
           id="g508"
           transform="translate(1029.468,2773.3203)">
          <path
             d="M 0,0 0.106,-1.68 0,-1.68 c -0.144,0.498 -0.353,0.866 -0.629,1.09 -0.26,0.222 -0.589,0.327 -0.967,0.327 -0.315,0 -0.604,-0.08 -0.852,-0.25 -0.261,-0.17 -0.457,-0.433 -0.602,-0.787 -0.157,-0.366 -0.221,-0.813 -0.221,-1.351 0,-0.446 0.064,-0.84 0.208,-1.169 0.131,-0.327 0.339,-0.577 0.615,-0.747 0.288,-0.171 0.603,-0.263 0.955,-0.263 0.315,0 0.591,0.066 0.825,0.21 0.237,0.132 0.499,0.407 0.774,0.814 l 0.117,-0.079 c -0.237,-0.433 -0.524,-0.76 -0.839,-0.957 -0.327,-0.197 -0.706,-0.303 -1.139,-0.303 -0.797,0 -1.413,0.303 -1.846,0.905 -0.326,0.447 -0.484,0.984 -0.484,1.589 0,0.485 0.106,0.944 0.315,1.351 0.223,0.419 0.51,0.736 0.877,0.957 0.38,0.224 0.785,0.343 1.231,0.343 0.34,0 0.679,-0.092 1.021,-0.263 0.091,-0.052 0.169,-0.08 0.21,-0.08 0.064,0 0.117,0.028 0.17,0.068 0.052,0.065 0.103,0.156 0.117,0.275 L 0,0 Z"
             style="fill:#ffdd00;fill-opacity:1;fill-rule:nonzero;stroke:none"
             id="path510"
             inkscape:connector-curvature="0" />
        </g>
        <g
           id="g512"
           transform="translate(1032.1768,2768.4121)">
          <path
             d="m 0,0 0,-0.131 -2.054,0 0,0.131 0.169,0 c 0.198,0 0.342,0.066 0.433,0.183 0.066,0.08 0.092,0.263 0.092,0.551 l 0,3.189 c 0,0.249 -0.014,0.421 -0.053,0.5 -0.026,0.066 -0.065,0.117 -0.143,0.157 -0.105,0.053 -0.21,0.078 -0.329,0.078 l -0.169,0 0,0.145 2.054,0 0,-0.145 -0.169,0 C -0.366,4.658 -0.51,4.605 -0.6,4.489 -0.654,4.409 -0.68,4.225 -0.68,3.923 l 0,-3.189 C -0.68,0.486 -0.666,0.327 -0.64,0.25 -0.614,0.183 -0.563,0.132 -0.497,0.092 -0.391,0.026 -0.288,0 -0.169,0 L 0,0 Z"
             style="fill:#ffdd00;fill-opacity:1;fill-rule:nonzero;stroke:none"
             id="path514"
             inkscape:connector-curvature="0" />
        </g>
        <g
           id="g516"
           transform="translate(1035.6858,2769.9209)">
          <path
             d="M 0,0 -1.871,0 -2.2,-0.775 c -0.078,-0.183 -0.117,-0.326 -0.117,-0.419 0,-0.078 0.039,-0.144 0.104,-0.197 0.066,-0.065 0.223,-0.092 0.445,-0.118 l 0,-0.131 -1.505,0 0,0.131 c 0.197,0.039 0.328,0.092 0.393,0.145 0.118,0.118 0.249,0.354 0.392,0.708 l 1.715,4.055 0.133,0 1.661,-4.095 c 0.131,-0.328 0.248,-0.55 0.366,-0.642 0.105,-0.105 0.263,-0.157 0.458,-0.171 l 0,-0.131 -1.91,0 0,0.131 c 0.196,0.014 0.313,0.053 0.391,0.105 0.067,0.053 0.093,0.119 0.093,0.198 0,0.105 -0.04,0.275 -0.132,0.497 L 0,0 Z m -0.118,0.276 0,0 -0.797,1.995 -0.84,-1.995 1.637,0 z"
             style="fill:#ffdd00;fill-opacity:1;fill-rule:nonzero;stroke:none"
             id="path518"
             inkscape:connector-curvature="0" />
        </g>
        <path
           d="m 978.589,2766.432 58.889,0 0,-0.67 -58.889,0 0,0.67 z"
           style="fill:#ffdd00;fill-opacity:1;fill-rule:nonzero;stroke:none"
           id="path520"
           inkscape:connector-curvature="0" />
        <g
           id="g522"
           transform="translate(1025.4504,2792.1758)">
          <path
             d="m 0,0 0,1.181 -10.918,0 0,-1.181 3.417,0 0,-9.199 -2.37,-5.97 1.938,0 2.434,5.21 0.04,0.012 0.038,-0.012 2.435,-5.21 1.938,0 -2.369,5.97 0,9.199 L 0,0 Z"
             style="fill:#ffdd00;fill-opacity:1;fill-rule:nonzero;stroke:none"
             id="path524"
             inkscape:connector-curvature="0" />
        </g>
        <g
           id="g526"
           transform="translate(1021.902,2795.4958)">
          <path
             d="m 0,0 c 0,-1.063 -0.851,-1.917 -1.911,-1.917 -1.059,0 -1.911,0.854 -1.911,1.917 0,1.05 0.852,1.902 1.911,1.902 C -0.851,1.902 0,1.05 0,0"
             style="fill:#ffdd00;fill-opacity:1;fill-rule:nonzero;stroke:none"
             id="path528"
             inkscape:connector-curvature="0" />
        </g>
        <g
           id="g530"
           transform="translate(1001.4175,2792.1228)">
          <path
             d="m 0,0 0,1.233 -10.916,0 0,-1.233 3.415,0 0,-9.198 -2.368,-5.971 1.95,0 2.421,5.21 0.04,0.013 0.052,-0.013 2.422,-5.21 1.937,0 -2.37,5.971 0,9.198 L 0,0 Z"
             style="fill:#ffdd00;fill-opacity:1;fill-rule:nonzero;stroke:none"
             id="path532"
             inkscape:connector-curvature="0" />
        </g>
        <g
           id="g534"
           transform="translate(997.8698,2795.4958)">
          <path
             d="m 0,0 c 0,-1.063 -0.85,-1.917 -1.911,-1.917 -1.059,0 -1.91,0.854 -1.91,1.917 0,1.05 0.851,1.902 1.91,1.902 C -0.85,1.902 0,1.05 0,0"
             style="fill:#ffdd00;fill-opacity:1;fill-rule:nonzero;stroke:none"
             id="path536"
             inkscape:connector-curvature="0" />
        </g>
        <g
           id="g538"
           transform="translate(989.3887,2793.3567)">
          <path
             d="m 0,0 -4.489,0 -1.951,0 -4.49,0 0,-1.129 3.416,0 -3.376,-12.505 2.107,0 -1.217,-2.716 1.976,0 1.283,2.716 0.223,0 2.107,0 0.223,0 1.296,-2.716 1.962,0 -1.216,2.716 2.107,0 -3.377,12.505 3.416,0 L 0,0 Z"
             style="fill:#ffdd00;fill-opacity:1;fill-rule:nonzero;stroke:none"
             id="path540"
             inkscape:connector-curvature="0" />
        </g>
        <g
           id="g542"
           transform="translate(982.0066,2795.4958)">
          <path
             d="M 0,0 C 0,1.05 0.864,1.902 1.924,1.902 2.971,1.902 3.835,1.05 3.835,0 3.835,-1.063 2.971,-1.917 1.924,-1.917 0.864,-1.917 0,-1.063 0,0"
             style="fill:#ffdd00;fill-opacity:1;fill-rule:nonzero;stroke:none"
             id="path544"
             inkscape:connector-curvature="0" />
        </g>
        <g
           id="g546"
           transform="translate(1037.6104,2793.3567)">
          <path
             d="m 0,0 -4.491,0 -1.95,0 -4.489,0 0,-1.129 3.416,0 -3.377,-12.505 2.108,0 -1.218,-2.716 1.965,0 1.294,2.716 0.223,0 2.107,0 0.222,0 1.282,-2.716 1.964,0 -1.203,2.716 2.107,0 -3.39,12.505 3.43,0 L 0,0 Z"
             style="fill:#ffdd00;fill-opacity:1;fill-rule:nonzero;stroke:none"
             id="path548"
             inkscape:connector-curvature="0" />
        </g>
        <g
           id="g550"
           transform="translate(1030.2277,2795.4958)">
          <path
             d="M 0,0 C 0,1.05 0.863,1.902 1.911,1.902 2.97,1.902 3.834,1.05 3.834,0 3.834,-1.063 2.97,-1.917 1.911,-1.917 0.863,-1.917 0,-1.063 0,0"
             style="fill:#ffdd00;fill-opacity:1;fill-rule:nonzero;stroke:none"
             id="path552"
             inkscape:connector-curvature="0" />
        </g>
        <g
           id="g554"
           transform="translate(1013.4216,2793.3567)">
          <path
             d="m 0,0 -4.49,0 -1.952,0 -4.489,0 0,-1.129 3.417,0 -3.377,-12.505 2.107,0 -1.218,-2.716 1.964,0 1.296,2.716 0.223,0 2.107,0 0.223,0 1.295,-2.716 1.964,0 -1.217,2.716 2.107,0 -3.378,12.505 3.418,0 L 0,0 Z"
             style="fill:#ffdd00;fill-opacity:1;fill-rule:nonzero;stroke:none"
             id="path556"
             inkscape:connector-curvature="0" />
        </g>
        <g
           id="g558"
           transform="translate(1006.0381,2795.4958)">
          <path
             d="M 0,0 C 0,1.05 0.864,1.902 1.924,1.902 2.971,1.902 3.835,1.05 3.835,0 3.835,-1.063 2.971,-1.917 1.924,-1.917 0.864,-1.917 0,-1.063 0,0"
             style="fill:#ffdd00;fill-opacity:1;fill-rule:nonzero;stroke:none"
             id="path560"
             inkscape:connector-curvature="0" />
        </g>
        <path
           d="m 40,2799.031 63.931,0 0,-34.902 -63.931,0 0,34.902 z"
           style="fill:#094d88;fill-opacity:1;fill-rule:evenodd;stroke:none"
           id="path562"
           inkscape:connector-curvature="0" />
        <g
           id="g564"
           transform="translate(46.447,2773.2151)">
          <path
             d="m 0,0 0.039,-1.155 -0.13,0 c -0.026,0.197 -0.066,0.341 -0.105,0.433 -0.079,0.145 -0.171,0.249 -0.288,0.315 -0.131,0.065 -0.288,0.092 -0.485,0.092 l -0.667,0 0,-3.767 c 0,-0.301 0.026,-0.484 0.092,-0.563 0.091,-0.105 0.236,-0.159 0.432,-0.159 l 0.169,0 0,-0.13 -2.055,0 0,0.13 0.17,0 c 0.197,0 0.354,0.067 0.433,0.197 0.052,0.08 0.078,0.25 0.078,0.525 l 0,3.767 -0.575,0 c -0.223,0 -0.38,-0.013 -0.472,-0.052 -0.13,-0.04 -0.236,-0.132 -0.314,-0.263 -0.092,-0.132 -0.144,-0.301 -0.157,-0.525 l -0.144,0 L -3.927,0 0,0 Z"
             style="fill:#ffdd00;fill-opacity:1;fill-rule:nonzero;stroke:none"
             id="path566"
             inkscape:connector-curvature="0" />
        </g>
        <g
           id="g568"
           transform="translate(51.5783,2768.281)">
          <path
             d="M 0,0 -1.295,0 -2.919,2.309 C -3.037,2.297 -3.128,2.297 -3.207,2.297 l -0.092,0 c -0.038,0 -0.078,0 -0.118,0.012 l 0,-1.445 c 0,-0.3 0.04,-0.497 0.106,-0.575 C -3.22,0.183 -3.09,0.13 -2.906,0.13 l 0.183,0 0,-0.13 -2.054,0 0,0.13 0.183,0 c 0.196,0 0.34,0.067 0.432,0.212 0.052,0.078 0.078,0.248 0.078,0.522 l 0,3.19 c 0,0.314 -0.039,0.513 -0.105,0.578 -0.09,0.105 -0.222,0.158 -0.405,0.158 l -0.183,0 0,0.144 1.74,0 c 0.51,0 0.89,-0.039 1.126,-0.119 0.249,-0.078 0.458,-0.224 0.629,-0.419 0.157,-0.211 0.248,-0.447 0.248,-0.735 0,-0.302 -0.105,-0.565 -0.288,-0.788 C -1.519,2.65 -1.819,2.494 -2.212,2.4 L -1.231,0.984 C -0.995,0.656 -0.799,0.446 -0.641,0.342 -0.484,0.236 -0.262,0.156 0,0.13 L 0,0 Z m -3.417,2.531 0,0 0.118,0 0.079,0 c 0.458,0 0.798,0.106 1.034,0.304 0.223,0.209 0.341,0.458 0.341,0.774 0,0.315 -0.092,0.562 -0.275,0.748 -0.197,0.197 -0.432,0.289 -0.746,0.289 -0.132,0 -0.315,-0.027 -0.551,-0.079 l 0,-2.036 z"
             style="fill:#ffdd00;fill-opacity:1;fill-rule:nonzero;stroke:none"
             id="path570"
             inkscape:connector-curvature="0" />
        </g>
        <g
           id="g572"
           transform="translate(54.8379,2769.9209)">
          <path
             d="M 0,0 -1.873,0 -2.2,-0.775 c -0.078,-0.183 -0.118,-0.326 -0.118,-0.419 0,-0.078 0.027,-0.144 0.105,-0.197 0.066,-0.065 0.223,-0.092 0.446,-0.118 l 0,-0.131 -1.505,0 0,0.131 c 0.196,0.039 0.326,0.092 0.379,0.145 0.131,0.118 0.262,0.354 0.407,0.708 l 1.713,4.055 0.131,0 1.649,-4.095 c 0.144,-0.328 0.263,-0.55 0.368,-0.642 0.117,-0.105 0.26,-0.157 0.458,-0.171 l 0,-0.131 -1.898,0 0,0.131 c 0.182,0.014 0.312,0.053 0.379,0.105 0.078,0.053 0.104,0.119 0.104,0.198 0,0.105 -0.039,0.275 -0.143,0.497 L 0,0 Z m -0.118,0.276 0,0 -0.799,1.995 -0.837,-1.995 1.636,0 z"
             style="fill:#ffdd00;fill-opacity:1;fill-rule:nonzero;stroke:none"
             id="path574"
             inkscape:connector-curvature="0" />
        </g>
        <g
           id="g576"
           transform="translate(56.6446,2773.2151)">
          <path
             d="m 0,0 1.295,0 2.933,-3.688 0,2.835 c 0,0.302 -0.041,0.486 -0.106,0.565 -0.078,0.103 -0.223,0.144 -0.418,0.144 l -0.172,0 0,0.144 1.69,0 0,-0.144 -0.17,0 c -0.21,0 -0.353,-0.053 -0.433,-0.184 C 4.568,-0.407 4.541,-0.577 4.541,-0.853 l 0,-4.161 -0.129,0 -3.169,3.977 0,-3.045 c 0,-0.301 0.039,-0.484 0.105,-0.563 0.091,-0.105 0.222,-0.159 0.418,-0.159 l 0.17,0 0,-0.13 -1.688,0 0,0.13 0.17,0 c 0.21,0 0.353,0.067 0.445,0.197 0.052,0.08 0.078,0.25 0.078,0.525 l 0,3.425 C 0.797,-0.486 0.693,-0.367 0.628,-0.315 0.549,-0.263 0.444,-0.223 0.301,-0.17 0.235,-0.144 0.129,-0.144 0,-0.144 L 0,0 Z"
             style="fill:#ffdd00;fill-opacity:1;fill-rule:nonzero;stroke:none"
             id="path578"
             inkscape:connector-curvature="0" />
        </g>
        <g
           id="g580"
           transform="translate(65.27,2773.3203)">
          <path
             d="m 0,0 0,-1.707 -0.131,0 c -0.039,0.329 -0.118,0.591 -0.235,0.787 -0.106,0.184 -0.263,0.342 -0.458,0.46 -0.21,0.104 -0.42,0.17 -0.63,0.17 -0.247,0 -0.445,-0.078 -0.613,-0.236 -0.158,-0.157 -0.237,-0.328 -0.237,-0.524 0,-0.144 0.053,-0.29 0.157,-0.407 0.144,-0.184 0.484,-0.42 1.034,-0.722 0.445,-0.248 0.759,-0.446 0.917,-0.578 0.169,-0.129 0.286,-0.275 0.379,-0.459 0.092,-0.183 0.131,-0.367 0.131,-0.565 0,-0.366 -0.131,-0.695 -0.42,-0.957 -0.273,-0.275 -0.64,-0.407 -1.086,-0.407 -0.143,0 -0.274,0.014 -0.392,0.026 -0.066,0.014 -0.224,0.066 -0.457,0.133 -0.224,0.078 -0.367,0.117 -0.433,0.117 -0.053,0 -0.104,-0.013 -0.144,-0.052 -0.026,-0.04 -0.052,-0.105 -0.065,-0.224 l -0.13,0 0,1.68 0.13,0 c 0.052,-0.355 0.143,-0.616 0.249,-0.786 0.09,-0.172 0.248,-0.33 0.471,-0.434 0.208,-0.118 0.445,-0.184 0.693,-0.184 0.301,0 0.524,0.079 0.707,0.249 0.169,0.157 0.248,0.342 0.248,0.564 0,0.118 -0.025,0.236 -0.091,0.368 -0.066,0.119 -0.171,0.236 -0.301,0.341 -0.092,0.079 -0.34,0.223 -0.759,0.461 -0.406,0.235 -0.694,0.419 -0.878,0.563 -0.17,0.144 -0.3,0.302 -0.392,0.46 -0.091,0.17 -0.131,0.366 -0.131,0.563 0,0.354 0.131,0.655 0.393,0.918 0.262,0.25 0.602,0.382 1.008,0.382 0.248,0 0.523,-0.066 0.811,-0.196 0.13,-0.054 0.223,-0.094 0.276,-0.094 0.064,0 0.117,0.027 0.157,0.066 0.038,0.04 0.065,0.105 0.091,0.224 L 0,0 Z"
             style="fill:#ffdd00;fill-opacity:1;fill-rule:nonzero;stroke:none"
             id="path582"
             inkscape:connector-curvature="0" />
        </g>
        <g
           id="g584"
           transform="translate(67.4684,2770.5901)">
          <path
             d="M 0,0 0,-1.444 C 0,-1.745 0.039,-1.941 0.105,-2.02 0.197,-2.125 0.327,-2.178 0.512,-2.178 l 0.183,0 0,-0.131 -2.057,0 0,0.131 0.184,0 c 0.196,0 0.341,0.066 0.433,0.21 0.051,0.079 0.077,0.249 0.077,0.524 l 0,3.189 c 0,0.315 -0.038,0.513 -0.104,0.578 -0.092,0.104 -0.222,0.157 -0.406,0.157 l -0.184,0 0,0.145 1.755,0 C 0.811,2.625 1.152,2.572 1.401,2.48 1.65,2.387 1.859,2.245 2.029,2.021 2.186,1.811 2.278,1.548 2.278,1.26 2.278,0.853 2.147,0.525 1.899,0.276 1.636,0.026 1.27,-0.104 0.811,-0.104 0.695,-0.104 0.563,-0.092 0.432,-0.079 0.3,-0.065 0.158,-0.039 0,0 m 0,0.21 0,0 C 0.131,0.184 0.236,0.158 0.327,0.145 0.432,0.132 0.512,0.132 0.576,0.132 c 0.249,0 0.445,0.09 0.629,0.287 0.17,0.198 0.261,0.459 0.261,0.762 0,0.223 -0.04,0.421 -0.131,0.604 C 1.258,1.969 1.139,2.1 0.982,2.192 0.838,2.283 0.654,2.337 0.457,2.337 0.34,2.337 0.197,2.31 0,2.258 L 0,0.21 Z"
             style="fill:#ffdd00;fill-opacity:1;fill-rule:nonzero;stroke:none"
             id="path586"
             inkscape:connector-curvature="0" />
        </g>
        <g
           id="g588"
           transform="translate(72.6784,2769.9209)">
          <path
             d="M 0,0 -1.872,0 -2.2,-0.775 c -0.077,-0.183 -0.117,-0.326 -0.117,-0.419 0,-0.078 0.026,-0.144 0.105,-0.197 0.066,-0.065 0.209,-0.092 0.444,-0.118 l 0,-0.131 -1.504,0 0,0.131 c 0.195,0.039 0.327,0.092 0.38,0.145 0.13,0.118 0.261,0.354 0.404,0.708 l 1.715,4.055 0.13,0 1.651,-4.095 c 0.143,-0.328 0.262,-0.55 0.365,-0.642 0.119,-0.105 0.263,-0.157 0.46,-0.171 l 0,-0.131 -1.898,0 0,0.131 c 0.182,0.014 0.313,0.053 0.38,0.105 0.077,0.053 0.104,0.119 0.104,0.198 0,0.105 -0.04,0.275 -0.144,0.497 L 0,0 Z m -0.118,0.276 0,0 -0.798,1.995 -0.839,-1.995 1.637,0 z"
             style="fill:#ffdd00;fill-opacity:1;fill-rule:nonzero;stroke:none"
             id="path590"
             inkscape:connector-curvature="0" />
        </g>
        <g
           id="g592"
           transform="translate(79.4715,2768.281)">
          <path
             d="M 0,0 -1.284,0 -2.919,2.309 C -3.037,2.297 -3.127,2.297 -3.207,2.297 l -0.091,0 c -0.039,0 -0.079,0 -0.105,0.012 l 0,-1.445 c 0,-0.3 0.026,-0.497 0.092,-0.575 0.092,-0.106 0.222,-0.159 0.405,-0.159 l 0.183,0 0,-0.13 -2.055,0 0,0.13 0.184,0 c 0.196,0 0.34,0.067 0.432,0.212 0.051,0.078 0.078,0.248 0.078,0.522 l 0,3.19 c 0,0.314 -0.039,0.513 -0.105,0.578 C -4.28,4.737 -4.411,4.79 -4.594,4.79 l -0.184,0 0,0.144 1.755,0 c 0.497,0 0.876,-0.039 1.124,-0.119 0.237,-0.078 0.446,-0.224 0.615,-0.419 0.171,-0.211 0.25,-0.447 0.25,-0.735 0,-0.302 -0.091,-0.565 -0.288,-0.788 C -1.517,2.65 -1.806,2.494 -2.212,2.4 L -1.218,0.984 C -0.995,0.656 -0.799,0.446 -0.641,0.342 -0.472,0.236 -0.262,0.156 0,0.13 L 0,0 Z m -3.403,2.531 0,0 0.105,0 0.079,0 c 0.458,0 0.797,0.106 1.033,0.304 0.223,0.209 0.34,0.458 0.34,0.774 0,0.315 -0.091,0.562 -0.273,0.748 -0.184,0.197 -0.433,0.289 -0.748,0.289 -0.13,0 -0.313,-0.027 -0.536,-0.079 l 0,-2.036 z"
             style="fill:#ffdd00;fill-opacity:1;fill-rule:nonzero;stroke:none"
             id="path594"
             inkscape:connector-curvature="0" />
        </g>
        <g
           id="g596"
           transform="translate(80.9113,2772.9387)">
          <path
             d="m 0,0 0,-1.941 1.047,0 c 0.276,0 0.458,0.052 0.55,0.13 0.118,0.105 0.183,0.301 0.196,0.579 l 0.131,0 0,-1.706 -0.131,0 C 1.767,-2.703 1.729,-2.545 1.702,-2.48 1.65,-2.4 1.583,-2.323 1.492,-2.282 1.387,-2.231 1.244,-2.205 1.047,-2.205 l -1.047,0 0,-1.627 c 0,-0.222 0.013,-0.354 0.039,-0.407 0.014,-0.038 0.052,-0.078 0.093,-0.105 0.051,-0.025 0.143,-0.038 0.274,-0.038 l 0.798,0 c 0.276,0 0.472,0.013 0.589,0.051 0.119,0.041 0.236,0.118 0.352,0.237 0.146,0.144 0.289,0.366 0.447,0.669 l 0.144,0 -0.405,-1.233 -3.692,0 0,0.131 0.17,0 c 0.119,0 0.224,0.026 0.328,0.092 0.077,0.04 0.116,0.091 0.156,0.171 0.027,0.078 0.039,0.236 0.039,0.471 l 0,3.203 c 0,0.315 -0.039,0.512 -0.09,0.578 -0.092,0.103 -0.237,0.144 -0.433,0.144 l -0.17,0 0,0.144 3.692,0 0.051,-1.089 -0.144,0 C 2.186,-0.552 2.134,-0.367 2.081,-0.275 2.015,-0.183 1.924,-0.105 1.807,-0.052 1.715,-0.012 1.558,0 1.309,0 L 0,0 Z"
             style="fill:#ffdd00;fill-opacity:1;fill-rule:nonzero;stroke:none"
             id="path598"
             inkscape:connector-curvature="0" />
        </g>
        <g
           id="g600"
           transform="translate(83.7247,2773.2151)">
          <path
             d="m 0,0 1.309,0 2.92,-3.688 0,2.835 c 0,0.302 -0.026,0.486 -0.091,0.565 -0.093,0.103 -0.236,0.144 -0.42,0.144 l -0.17,0 0,0.144 1.689,0 0,-0.144 -0.171,0 C 4.857,-0.144 4.713,-0.197 4.622,-0.328 4.57,-0.407 4.543,-0.577 4.543,-0.853 l 0,-4.161 -0.117,0 -3.169,3.977 0,-3.045 c 0,-0.301 0.027,-0.484 0.092,-0.563 0.092,-0.105 0.236,-0.159 0.418,-0.159 l 0.183,0 0,-0.13 -1.687,0 0,0.13 0.17,0 c 0.196,0 0.353,0.067 0.431,0.197 0.053,0.08 0.078,0.25 0.078,0.525 l 0,3.425 C 0.813,-0.486 0.708,-0.367 0.629,-0.315 0.564,-0.263 0.459,-0.223 0.315,-0.17 0.25,-0.144 0.145,-0.144 0,-0.144 L 0,0 Z"
             style="fill:#ffdd00;fill-opacity:1;fill-rule:nonzero;stroke:none"
             id="path602"
             inkscape:connector-curvature="0" />
        </g>
        <g
           id="g604"
           transform="translate(93.3987,2773.3203)">
          <path
             d="M 0,0 0.106,-1.68 0,-1.68 c -0.144,0.498 -0.353,0.866 -0.629,1.09 -0.26,0.222 -0.589,0.327 -0.967,0.327 -0.315,0 -0.604,-0.08 -0.852,-0.25 -0.261,-0.17 -0.457,-0.433 -0.602,-0.787 -0.157,-0.366 -0.221,-0.813 -0.221,-1.351 0,-0.446 0.064,-0.84 0.208,-1.169 0.131,-0.327 0.339,-0.577 0.615,-0.747 0.288,-0.171 0.603,-0.263 0.955,-0.263 0.315,0 0.591,0.066 0.825,0.21 0.237,0.132 0.499,0.407 0.774,0.814 l 0.117,-0.079 c -0.237,-0.433 -0.524,-0.76 -0.839,-0.957 -0.327,-0.197 -0.706,-0.303 -1.139,-0.303 -0.797,0 -1.413,0.303 -1.846,0.905 -0.325,0.447 -0.484,0.984 -0.484,1.589 0,0.485 0.106,0.944 0.316,1.351 0.222,0.419 0.509,0.736 0.876,0.957 0.38,0.224 0.785,0.343 1.231,0.343 0.34,0 0.679,-0.092 1.021,-0.263 0.091,-0.052 0.169,-0.08 0.21,-0.08 0.064,0 0.117,0.028 0.17,0.068 0.052,0.065 0.103,0.156 0.117,0.275 L 0,0 Z"
             style="fill:#ffdd00;fill-opacity:1;fill-rule:nonzero;stroke:none"
             id="path606"
             inkscape:connector-curvature="0" />
        </g>
        <g
           id="g608"
           transform="translate(96.1074,2768.4121)">
          <path
             d="m 0,0 0,-0.131 -2.054,0 0,0.131 0.169,0 c 0.198,0 0.342,0.066 0.433,0.183 0.066,0.08 0.092,0.263 0.092,0.551 l 0,3.189 c 0,0.249 -0.014,0.421 -0.053,0.5 -0.026,0.066 -0.065,0.117 -0.143,0.157 -0.105,0.053 -0.21,0.078 -0.329,0.078 l -0.169,0 0,0.145 2.054,0 0,-0.145 -0.169,0 C -0.366,4.658 -0.51,4.605 -0.6,4.489 -0.654,4.409 -0.68,4.225 -0.68,3.923 l 0,-3.189 C -0.68,0.486 -0.666,0.327 -0.64,0.25 -0.614,0.183 -0.563,0.132 -0.497,0.092 -0.392,0.026 -0.288,0 -0.169,0 L 0,0 Z"
             style="fill:#ffdd00;fill-opacity:1;fill-rule:nonzero;stroke:none"
             id="path610"
             inkscape:connector-curvature="0" />
        </g>
        <g
           id="g612"
           transform="translate(99.6165,2769.9209)">
          <path
             d="M 0,0 -1.871,0 -2.2,-0.775 c -0.078,-0.183 -0.117,-0.326 -0.117,-0.419 0,-0.078 0.039,-0.144 0.104,-0.197 0.066,-0.065 0.223,-0.092 0.445,-0.118 l 0,-0.131 -1.505,0 0,0.131 c 0.197,0.039 0.328,0.092 0.393,0.145 0.118,0.118 0.249,0.354 0.392,0.708 l 1.715,4.055 0.133,0 1.661,-4.095 c 0.131,-0.328 0.248,-0.55 0.366,-0.642 0.105,-0.105 0.263,-0.157 0.458,-0.171 l 0,-0.131 -1.91,0 0,0.131 c 0.196,0.014 0.312,0.053 0.391,0.105 0.067,0.053 0.093,0.119 0.093,0.198 0,0.105 -0.04,0.275 -0.132,0.497 L 0,0 Z m -0.118,0.276 0,0 -0.797,1.995 -0.84,-1.995 1.637,0 z"
             style="fill:#ffdd00;fill-opacity:1;fill-rule:nonzero;stroke:none"
             id="path614"
             inkscape:connector-curvature="0" />
        </g>
        <path
           d="m 42.52,2766.432 58.89,0 0,-0.67 -58.89,0 0,0.67 z"
           style="fill:#ffdd00;fill-opacity:1;fill-rule:nonzero;stroke:none"
           id="path616"
           inkscape:connector-curvature="0" />
        <g
           id="g618"
           transform="translate(89.3811,2792.1758)">
          <path
             d="m 0,0 0,1.181 -10.918,0 0,-1.181 3.417,0 0,-9.199 -2.37,-5.97 1.938,0 2.434,5.21 0.04,0.012 0.038,-0.012 2.435,-5.21 1.938,0 -2.369,5.97 0,9.199 L 0,0 Z"
             style="fill:#ffdd00;fill-opacity:1;fill-rule:nonzero;stroke:none"
             id="path620"
             inkscape:connector-curvature="0" />
        </g>
        <g
           id="g622"
           transform="translate(85.8326,2795.4958)">
          <path
             d="m 0,0 c 0,-1.063 -0.851,-1.917 -1.911,-1.917 -1.059,0 -1.911,0.854 -1.911,1.917 0,1.05 0.852,1.902 1.911,1.902 C -0.851,1.902 0,1.05 0,0"
             style="fill:#ffdd00;fill-opacity:1;fill-rule:nonzero;stroke:none"
             id="path624"
             inkscape:connector-curvature="0" />
        </g>
        <g
           id="g626"
           transform="translate(65.3482,2792.1228)">
          <path
             d="m 0,0 0,1.233 -10.916,0 0,-1.233 3.415,0 0,-9.198 -2.368,-5.971 1.95,0 2.421,5.21 0.04,0.013 0.052,-0.013 2.422,-5.21 1.937,0 -2.37,5.971 0,9.198 L 0,0 Z"
             style="fill:#ffdd00;fill-opacity:1;fill-rule:nonzero;stroke:none"
             id="path628"
             inkscape:connector-curvature="0" />
        </g>
        <g
           id="g630"
           transform="translate(61.8004,2795.4958)">
          <path
             d="m 0,0 c 0,-1.063 -0.85,-1.917 -1.911,-1.917 -1.059,0 -1.91,0.854 -1.91,1.917 0,1.05 0.851,1.902 1.91,1.902 C -0.85,1.902 0,1.05 0,0"
             style="fill:#ffdd00;fill-opacity:1;fill-rule:nonzero;stroke:none"
             id="path632"
             inkscape:connector-curvature="0" />
        </g>
        <g
           id="g634"
           transform="translate(53.3193,2793.3567)">
          <path
             d="m 0,0 -4.489,0 -1.951,0 -4.49,0 0,-1.129 3.416,0 -3.376,-12.505 2.107,0 -1.217,-2.716 1.976,0 1.283,2.716 0.223,0 2.107,0 0.223,0 1.296,-2.716 1.962,0 -1.216,2.716 2.107,0 -3.377,12.505 3.416,0 L 0,0 Z"
             style="fill:#ffdd00;fill-opacity:1;fill-rule:nonzero;stroke:none"
             id="path636"
             inkscape:connector-curvature="0" />
        </g>
        <g
           id="g638"
           transform="translate(45.9373,2795.4958)">
          <path
             d="M 0,0 C 0,1.05 0.864,1.902 1.924,1.902 2.971,1.902 3.835,1.05 3.835,0 3.835,-1.063 2.971,-1.917 1.924,-1.917 0.864,-1.917 0,-1.063 0,0"
             style="fill:#ffdd00;fill-opacity:1;fill-rule:nonzero;stroke:none"
             id="path640"
             inkscape:connector-curvature="0" />
        </g>
        <g
           id="g642"
           transform="translate(101.541,2793.3567)">
          <path
             d="m 0,0 -4.491,0 -1.95,0 -4.489,0 0,-1.129 3.416,0 -3.376,-12.505 2.107,0 -1.218,-2.716 1.965,0 1.294,2.716 0.223,0 2.107,0 0.222,0 1.282,-2.716 1.964,0 -1.203,2.716 2.107,0 -3.39,12.505 3.43,0 L 0,0 Z"
             style="fill:#ffdd00;fill-opacity:1;fill-rule:nonzero;stroke:none"
             id="path644"
             inkscape:connector-curvature="0" />
        </g>
        <g
           id="g646"
           transform="translate(94.1584,2795.4958)">
          <path
             d="M 0,0 C 0,1.05 0.863,1.902 1.912,1.902 2.97,1.902 3.834,1.05 3.834,0 3.834,-1.063 2.97,-1.917 1.912,-1.917 0.863,-1.917 0,-1.063 0,0"
             style="fill:#ffdd00;fill-opacity:1;fill-rule:nonzero;stroke:none"
             id="path648"
             inkscape:connector-curvature="0" />
        </g>
        <g
           id="g650"
           transform="translate(77.3523,2793.3567)">
          <path
             d="m 0,0 -4.49,0 -1.952,0 -4.489,0 0,-1.129 3.417,0 -3.377,-12.505 2.107,0 -1.218,-2.716 1.964,0 1.296,2.716 0.223,0 2.107,0 0.223,0 1.295,-2.716 1.964,0 -1.217,2.716 2.107,0 -3.378,12.505 3.418,0 L 0,0 Z"
             style="fill:#ffdd00;fill-opacity:1;fill-rule:nonzero;stroke:none"
             id="path652"
             inkscape:connector-curvature="0" />
        </g>
        <g
           id="g654"
           transform="translate(69.9688,2795.4958)">
          <path
             d="M 0,0 C 0,1.05 0.864,1.902 1.924,1.902 2.971,1.902 3.835,1.05 3.835,0 3.835,-1.063 2.971,-1.917 1.924,-1.917 0.864,-1.917 0,-1.063 0,0"
             style="fill:#ffdd00;fill-opacity:1;fill-rule:nonzero;stroke:none"
             id="path656"
             inkscape:connector-curvature="0" />
        </g>
      </g>
    </g>
  </g>
</svg>
