<?xml version="1.0" encoding="UTF-8" standalone="no"?>
<!-- Created with Inkscape (http://www.inkscape.org/) -->

<svg
   xmlns:dc="http://purl.org/dc/elements/1.1/"
   xmlns:cc="http://creativecommons.org/ns#"
   xmlns:rdf="http://www.w3.org/1999/02/22-rdf-syntax-ns#"
   xmlns:svg="http://www.w3.org/2000/svg"
   xmlns="http://www.w3.org/2000/svg"
   xmlns:sodipodi="http://sodipodi.sourceforge.net/DTD/sodipodi-0.dtd"
   xmlns:inkscape="http://www.inkscape.org/namespaces/inkscape"
   width="19.130787mm"
   height="25.510773mm"
   viewBox="0 0 67.786253 90.392501"
   id="svg3743"
   version="1.1"
   inkscape:version="0.91 r13725"
   sodipodi:docname="plan32.svg">
  <defs
     id="defs3745" />
  <sodipodi:namedview
     id="base"
     pagecolor="#ffffff"
     bordercolor="#666666"
     borderopacity="1.0"
     inkscape:pageopacity="0"
     inkscape:pageshadow="2"
     inkscape:zoom="3.959798"
     inkscape:cx="2.2398917"
     inkscape:cy="53.70711"
     inkscape:document-units="px"
     inkscape:current-layer="layer1"
     showgrid="false"
     fit-margin-top="0"
     fit-margin-left="0"
     fit-margin-right="0"
     fit-margin-bottom="0"
     inkscape:window-width="475"
     inkscape:window-height="373"
     inkscape:window-x="0"
     inkscape:window-y="24"
     inkscape:window-maximized="0" />
  <metadata
     id="metadata3748">
    <rdf:RDF>
      <cc:Work
         rdf:about="">
        <dc:format>image/svg+xml</dc:format>
        <dc:type
           rdf:resource="http://purl.org/dc/dcmitype/StillImage" />
        <dc:title></dc:title>
      </cc:Work>
    </rdf:RDF>
  </metadata>
  <g
     inkscape:label="Capa 1"
     inkscape:groupmode="layer"
     id="layer1"
     transform="translate(-537.53545,-835.73708)">
    <path
       d="m 578.9892,885.98613 3.31,0 c 0.2575,0 0.2875,-0.2025 0.31625,-0.375 l 0.37375,-2.1575 3.74,0 0,5.8125 -14.01125,0 0,-3.2225 3.76875,-3.74125 c 2.935,-2.905 3.885,-3.79625 3.885,-5.12 0,-0.6625 -0.2875,-1.32375 -1.35375,-1.32375 -1.2075,0 -1.6675,0.5175 -1.6675,2.33 l -4.80625,-0.4025 c 0.03,-4.8625 3.82875,-5.6675 7.02125,-5.6675 4.6325,0 6.18625,1.9275 6.18625,4.66125 0,2.53125 -1.64,4.11375 -3.625,6.09875 l -3.1375,3.1075 z m -12.63125,-4.4025 c 2.3875,0.3175 3.7975,1.8125 3.7975,4.43125 0,4.0275 -3.165,5.63875 -7.3375,5.63875 -3.02,0 -5.81125,-1.035 -7.4225,-2.7625 l 2.7625,-3.05 c 1.035,1.00875 2.18625,1.87125 4.11375,1.87125 1.4675,0 2.56125,-0.48875 2.56125,-2.15875 0,-1.4675 -0.835,-1.985 -2.215,-1.985 -0.7775,0 -1.295,0.0575 -2.1875,0.23 l 0,-3.42375 1.2375,-0.14375 c 1.78375,-0.20125 2.81875,-1.06375 2.81875,-2.8475 0,-0.80625 -0.28625,-1.525 -1.525,-1.525 -1.23625,0 -1.725,0.48875 -1.725,2.33 l -4.8625,-0.4025 c 0,-4.8625 3.65375,-5.6675 6.8475,-5.6675 4.6325,0 6.445,1.5825 6.445,4.91875 0,2.50375 -1.66875,3.97125 -3.30875,4.43125 l 0,0.115 z m 22.38125,-16.24875 c 0,0.3475 0.0225,0.39125 0.3475,0.43375 l 0.93375,0.1525 0,2.04 -6.59875,0 0,-2.0625 0.9125,-0.13 c 0.3025,-0.0425 0.34625,-0.1075 0.34625,-0.43375 l 0,-5.795 c 0,-0.23875 -0.065,-0.39125 -0.2825,-0.45625 l -1.10625,-0.4125 0.28125,-2.105 4.36375,0 0.1725,1.02 0.1525,0 c 0.825,-0.58625 1.8675,-1.25875 3.66875,-1.25875 2.21375,0 3.16875,1.215 3.16875,3.73375 l 0,5.27375 c 0,0.3475 0.0213,0.39125 0.3475,0.43375 l 0.99875,0.1525 0,2.04 -5.405,0 0,-7.11875 c 0,-0.9775 -0.1525,-1.39 -0.825,-1.39 -0.63,0 -1.15,0.26125 -1.47625,0.4775 l 0,5.405 z m -12.37,-1.99625 -0.89,0.0425 c -0.93375,0.0438 -1.325,0.36875 -1.325,1.1075 0,0.6725 0.47875,0.9325 1.02125,0.9325 0.41125,0 0.8675,-0.0862 1.19375,-0.28125 l 0,-1.80125 z m 0.73625,4.6225 -0.2375,-1.215 -0.1525,-0.0438 c -0.695,0.71625 -1.69125,1.52 -3.45125,1.52 -2.75625,0 -3.255,-1.8675 -3.255,-3.365 0,-2.17 1.3675,-3.10375 4.12375,-3.25625 l 2.23625,-0.13 0,-1.25875 c 0,-0.695 0,-1.32375 -1.02125,-1.32375 -0.84625,0 -1.15,0.2175 -1.15,1.3025 l -3.77625,-0.2825 c 0,-3.0825 2.8,-3.58125 4.97,-3.58125 3.43125,0 4.9275,0.91125 4.9275,3.99375 l 0,4.9925 c 0,0.3475 0.0225,0.39 0.34625,0.43375 l 1,0.17375 0,2.04 -4.56,0 z m -15.7125,0 0,-2.0625 0.91125,-0.13 c 0.30375,-0.0425 0.3475,-0.1075 0.3475,-0.43375 l 0,-10.7875 c 0,-0.23875 -0.065,-0.37 -0.2825,-0.45625 l -1.12875,-0.4125 0.2825,-2.105 5.1875,0 0,13.76125 c 0,0.3475 0.0225,0.39125 0.3475,0.43375 l 0.93375,0.1525 0,2.04 -6.59875,0 z m -8.11625,-8.50875 c -0.5,0 -1.08625,0.23875 -1.455,0.4775 l 0,4.775 c 0.3475,0.2175 0.91125,0.4125 1.4325,0.4125 1.15,0 1.65,-1.17125 1.65,-2.95125 0,-1.80125 -0.58625,-2.71375 -1.6275,-2.71375 m -2.04125,-1.86625 0.1525,0.0437 c 1.21625,-0.93375 2.475,-1.3025 3.56,-1.3025 2.43,0 4.2325,1.4975 4.2325,5.68625 0,4.47125 -1.95375,6.20875 -4.32,6.20875 -1.5625,0 -2.43125,-0.45625 -3.125,-1.02125 l 0,2.67 c 0,0.3475 0.0425,0.4125 0.3675,0.43375 l 2.38875,0.2175 0,2.04 -7.96625,0 0,-2.06125 0.84625,-0.13 c 0.30375,-0.0438 0.4125,-0.13 0.4125,-0.4775 l 0,-10.35375 c 0,-0.23875 -0.0638,-0.37 -0.2825,-0.45625 l -1.1075,-0.4125 0.28375,-2.105 4.3625,0 0.195,1.02 z m 20.1875,-21.84875 c -18.71625,0.0113 -33.89125,15.17875 -33.8875,33.9025 0,11.3175 5.56125,21.31 14.08375,27.46875 l 0,4.38375 39.605,-0.009 0.0125,-4.37875 c 8.52375,-6.14875 14.085,-16.1525 14.085,-27.47375 -0.01,-18.7138 -15.17875,-33.8863 -33.89875,-33.8938 m -19.80375,72.5125 39.605,0 -0.002,-3.85375 -39.6025,0.01 0,3.84375 z m 39.6025,3.01 0.002,0.95875 c 0,3.7375 -2.9475,6.73375 -6.64875,6.92625 -1.0175,3.9475 -6.49875,6.985 -13.1525,6.985 -6.65125,0 -12.135,-3.03625 -13.15375,-6.985 -3.70375,-0.195 -6.66375,-3.18875 -6.65,-6.92125 l -0.006,-0.95625 39.60875,-0.008 z"
       style="fill:#3c3c3b;fill-opacity:1;fill-rule:nonzero;stroke:none"
       id="path448"
       inkscape:connector-curvature="0" />
  </g>
</svg>
